<svg id="Layer_1" data-name="Layer 1" xmlns="http://www.w3.org/2000/svg" viewBox="0 0 1000 612"><defs><style>.cls-1{fill:#f49d80;}</style></defs><title>Artboard 12</title><path class="cls-1" d="M635,498.76A332.9,332.9,0,0,0,575.23,493h-.46c-11.86,0-21.62-2.51-31.94-5.17-3-.78-6.13-1.58-9.34-2.33,1.43-4.6,1.33-8.38-.31-11.51a11.43,11.43,0,0,0-1.58-2.28,7.67,7.67,0,0,0,1.15-2.1c1.25-3.53-.68-10-2.72-16.92-1.43-4.82-2.91-9.81-2.74-12.31.12-1.7.24-3.34.36-4.93.84-11.12,1.5-19.91-1.11-31.86-1-4.64-2.53-8.19-4.6-10.77,3.8-3.32,3.53-6.3,2.67-11.4a62.92,62.92,0,0,1-1-8.22c-.25-5.33-.18-10.81-.11-16.12s.15-10.89-.11-16.31c-.64-13.55-.93-19.74-15.36-23.53A98,98,0,0,0,492.39,315a111.61,111.61,0,0,1-15.74-2.15c-1.93-.47-4.31-.87-6.83-1.3-7.69-1.31-18.24-3.11-21.56-8a12.85,12.85,0,0,1-1.63-5.15c14.56,11.3,54.32,15.47,71.25,14.84a12.89,12.89,0,0,0,9.85,6.69,15.87,15.87,0,0,0,2,.12c11.08,0,23.82-10.65,28.2-15.86,12.43-14.82,14.49-26.62,7.35-42.08-4-8.59-22.67-46.89-46-59.39,3-4.29,6.23-8.7,9.63-13.29,7.74-10.46,15.72-21.22,21.29-32.09a7.38,7.38,0,0,0,4.47-2.58,5.88,5.88,0,0,0,.88-6.52,10.54,10.54,0,0,0-.84-1.53c2.26-6.91,3.5-14.18,4.71-21.27,1.65-9.69,3.21-18.85,7.15-26.76.63-1.26,1.54-2.68,2.5-4.19,2.8-4.35,6-9.29,4.84-14.19-.62-2.68-2.47-5-5.51-6.84s-7.44-4.09-10.59-2c-3.69,2.4-2.83,9-2.08,14.72a31,31,0,0,1,.45,6c-.87,6.79-6.17,13.23-11.78,20-6.73,8.18-13.67,16.62-13.12,26.39-8.56,12.31-19.35,25.36-32.75,31.95l-.5-.36c-3.06-2.07-6.79-2.68-11.08-1.82a1.91,1.91,0,0,0-1.25.89,1.86,1.86,0,0,0-.2,1.51c.35,1.19.67,2.41,1,3.67-1.13.17-2.27.3-3.43.37a1.91,1.91,0,0,0-1.74,1.49,98,98,0,0,0-2,15.28,19.85,19.85,0,0,1-1-6c-.12-8.68,4.38-14.18,9.14-20,5.24-6.4,10.65-13,10.23-24a21.32,21.32,0,0,0-15.9-20.2c-7.35-2-17.55-.42-24.1,9.91-5.36,8.46-2.84,18.45.23,25.34,2.72,6.11,6,8.39,9.5,10.8.95.65,1.9,1.31,2.89,2.08a34.33,34.33,0,0,1-7.55-1.12c-.08-.38-.17-.75-.25-1.11a1.92,1.92,0,0,0-2.42-1.36c-9.67,3.06-16.07-1.51-22.86-7.33-2.81-2.42-5.34-6.92-7.77-11.27-2.8-5-5.43-9.7-8.68-11.55a9.64,9.64,0,0,0-4.15-1.11c-7-13.39-13.78-28-13.36-42.14a40.38,40.38,0,0,1,1.29-7.48c1.48-6.38,3.16-13.6-1.83-18.55-3.88-3.85-8.81-4.95-13.53-3a14.68,14.68,0,0,0-8.86,13.14c-.05,4.62,2.1,11.56,4.18,18.28a120.56,120.56,0,0,1,3.33,12.14c1.42,7.74,4.25,15,7,22,1.06,2.73,2.16,5.55,3.15,8.33.38,1.06.76,2.12,1.15,3.17a10.06,10.06,0,0,0-3.59,5.91c-.83,5.39,1.34,7.65,3.3,8.59a10.47,10.47,0,0,0,6.34.45c4.64,10.63,9.8,21,15.15,31.83l1,2c8.79,17.72,5.56,26.5-2.59,44.69-.93,2.08-2.39,4.94-4.09,8.26-5.83,11.41-13.09,25.61-12.31,33.13,1.59,15.12,19.23,14.06,32.12,13.29,2.82-.17,5.53-.33,7.81-.31,0,2,0,4.07.09,6.06-7.91,8.29-10.19,24.94-11.89,37.29-.31,2.28-.61,4.42-.91,6.31-.81,5.07-1.84,10.24-2.93,15.72-2.36,11.82-4.78,24-5,35.47-6.26,4.47-8.22,14.39-10.46,25.75l-.11.6c-.71,3.59-1.64,7.53-2.63,11.7-3.26,13.81-6.95,29.48-4.86,41.89a1.89,1.89,0,0,0,1.35,1.51c1.46.42,3,.71,4.44,1,3.25.63,6.17,1.19,8.15,3-2.77.6-5.94.24-9-.12a33.54,33.54,0,0,0-7.39-.32,1.91,1.91,0,0,0-1.65,1.51c-.39,1.91-.86,3.85-1.35,5.91a91.89,91.89,0,0,0-2.64,14.16,3.38,3.38,0,0,1-2.75-.94c-.07.35-.16.7-.24,1.05,1.83,2.41,3.57,3.65,5.17,3.33a1.89,1.89,0,0,0,1.52-1.78c.21-4.85,1.44-10,2.63-14.93.37-1.52.74-3.08,1.08-4.61a47.66,47.66,0,0,1,5.18.4c4.31.49,9.19,1.05,13.42-1a1.94,1.94,0,0,0,.58-.44,68.38,68.38,0,0,0,3.66,13.42,1.91,1.91,0,0,0,2.29,1.16c14.68-4,32.86-3,50.44-2,10.7.62,20.81,1.21,30.25.73a1.9,1.9,0,0,0,1.8-1.78c.2-3.38.38-7.75.38-12.71.35.15.72.29,1.1.42a21.24,21.24,0,0,0,16.7-1.83,7.31,7.31,0,0,1,1.08,1.53c1.34,2.55,1.14,6-.6,10.43a1.89,1.89,0,0,0,1.36,2.54c3.9.87,7.66,1.84,11.3,2.78,10.57,2.72,20.54,5.29,32.89,5.29h.46c22.72,0,42.59,2.69,60.76,6C635.66,501.46,635.3,500.12,635,498.76ZM446.61,293.21a2.27,2.27,0,0,0-.43-.39c-.05-1.42-.05-2.85,0-4.24a62,62,0,0,1,10.84,3c4.2,1.44,8.54,2.93,12.86,3.28a71.19,71.19,0,0,0,9.82,0c2.37-.12,4.68-.24,7-.14,7,6.67,15.15,12.44,24.63,14.78C491.06,309,455.34,303.74,446.61,293.21Zm-.4-8.45c0-.11,0-.21,0-.32,0-1.8.08-3.45.06-4.84a97.76,97.76,0,0,1,32.32,6.49c1.38,1.6,2.82,3.22,4.32,4.81-1.17,0-2.32.1-3.46.15a66.92,66.92,0,0,1-9.31.05c-3.85-.31-7.77-1.66-11.93-3.09A62,62,0,0,0,446.21,284.76ZM547.34,114.58c5.71-6.94,11.61-14.11,12.62-22a30.74,30.74,0,0,0-.46-6.93c-.48-3.72-1.29-10,.39-11a1.54,1.54,0,0,1,.85-.19c.9,0,2.61.41,5.69,2.3,2.17,1.32,3.41,2.77,3.79,4.44.77,3.35-1.94,7.57-4.33,11.29A51.52,51.52,0,0,0,563.18,97c-4.19,8.42-5.87,18.28-7.5,27.83a165.26,165.26,0,0,1-3.91,18.58c-5.08-4.61-13.19-8.34-16.49-8.67C536.43,127.84,541.76,121.36,547.34,114.58Zm-11.53,24.1c3.38.81,11,4.76,14.65,8.75-.48,1.35-1,2.68-1.59,4-.32.71-.65,1.41-1,2.12l-.34-.09c-5.47-1.57-11.75-10.2-12.28-13.46l-.06-.41C535.41,139.28,535.61,139,535.81,138.68Zm-3.34,4.79c2.29,5,8.09,11.7,13.66,13.51-5.4,10.15-12.93,20.32-20.26,30.22-3.56,4.8-7,9.4-10.06,13.9a30.84,30.84,0,0,0-6.49-1.92c-.3-1.44-.59-3.06-.9-4.74-1.28-7.13-2.82-15.67-7-21.11C514,166.75,524.19,155,532.47,143.47Zm-27.79,51.64c.41,2.24.79,4.36,1.22,6.2a1.91,1.91,0,0,0,1.62,1.45,26.49,26.49,0,0,1,6.13,1.54l-.09.13c-7.13.58-18.46.6-26.35-3.77,1.67-.7,3.4-1.34,5.21-1.93a1.91,1.91,0,0,0,1.3-2.07c-.22-1.6-.43-3.28-.65-5-.57-4.57-1.19-9.52-2.1-14.32a45.53,45.53,0,0,0,6.87-2.33C501.88,179.56,503.41,188.09,504.68,195.11Zm-10.5-22.74c-1.31.48-2.64.9-4,1.25-.14-.62-.29-1.24-.45-1.85A10.16,10.16,0,0,1,494.18,172.37Zm-9.45,6.07q1.27-.13,2.52-.33c.88,4.67,1.49,9.54,2.05,14,.15,1.19.3,2.36.45,3.49q-3.22,1.13-6.15,2.47c-.26-.24-.52-.49-.76-.74A123.71,123.71,0,0,1,484.73,178.44ZM480.61,218a90,90,0,0,0,1.95-15.13l.54-.28c9,6.38,23,6.34,31.25,5.63h.06a1.83,1.83,0,0,0,1-.19,1.9,1.9,0,0,0,.92-.76,2.06,2.06,0,0,0,.21-.48l.59-.89c22.22,11.46,40.73,49.44,44.62,57.86,6.5,14.07,4.65,24.38-6.81,38-5.51,6.55-18.21,15.46-26.79,14.41-3.32-.4-5.75-2.22-7.43-5.57,20.55-.08,32.48-17.15,42.93-34.8a1.9,1.9,0,0,0-.18-2.2c-.21-.27-1.31-1.75-1.54-2.1a1.93,1.93,0,0,0-1.32-.93,1.88,1.88,0,0,0-1.8.65c-7.64,9.2-17.41,18.55-32.08,18.55l-1,0c-14.49-.43-24.3-15.2-33-28.23-1-1.56-2-3.1-3.06-4.59C480.63,243.58,477.65,230.83,480.61,218Zm6,41.13q1.5,2.22,3,4.55c9.17,13.8,19.55,29.44,36,29.93,14.35.41,24.62-7.29,32.23-15.44-10,16.17-21.71,30.55-41,28.48-8.72-.93-16.45-5.23-23.19-10.8.4.12.8.24,1.21.38a1.9,1.9,0,0,0,1.95-3.14,49.39,49.39,0,0,0-16-10.2c-.88-1-1.72-2.06-2.55-3.08-14.64-18.09-20.62-38.24-16-53.9,2.5-8.45,8.05-15.47,16.31-20.75a79.19,79.19,0,0,1-1.7,12C473.7,231.06,476.86,244.79,486.58,259.09ZM398.43,127.55c-2.68-6.86-5.44-14-6.8-21.33a115.78,115.78,0,0,0-3.44-12.58c-2-6.44-4-13.09-4-17.12a10.8,10.8,0,0,1,6.5-9.67c1.91-.78,5.66-1.54,9.42,2.2,3.48,3.45,2.18,9.06.8,15a42.62,42.62,0,0,0-1.39,8.24c-.42,14.47,6.08,29.06,13,42.44a29.82,29.82,0,0,0-8.47,2.61c-.57.27-1.11.55-1.62.85-.27-.73-.53-1.45-.79-2.18C400.61,133.15,399.5,130.3,398.43,127.55Zm2.11,24c-.43-.21-1.76-.85-1.19-4.59a5.32,5.32,0,0,1,1.33-2.59c1,2.52,2,5,3,7.49A6,6,0,0,1,400.54,151.51Zm3.22-9.72a20.4,20.4,0,0,1,1.92-1,24.62,24.62,0,0,1,8.71-2.4l1.84,3.48,1.71,3.23a35.59,35.59,0,0,1-10.49,5.84Q405.53,146.38,403.76,141.79Zm38.66,142.56v.16H442c-2.33,0-5,.16-7.71.32-15.24.91-27,.76-28.11-9.9-.67-6.4,6.9-21.21,11.91-31,1.72-3.36,3.21-6.26,4.18-8.43,8.43-18.81,12.06-28.71,2.52-47.93l-1-2c-5.24-10.57-10.3-20.77-14.84-31.15,5.33-1.88,10.66-5.4,12.73-7.66a1.9,1.9,0,0,0,.29-2.16L419.59,140,419,139c2.31,1.38,4.78,5.8,7.17,10.06,2.6,4.64,5.29,9.44,8.62,12.3,6.95,6,14.06,11.08,24.47,8.63l0,.16a1.88,1.88,0,0,0,1.35,1.48,36,36,0,0,0,14.64,1.31,1.9,1.9,0,0,0,1.55-1.26,1.88,1.88,0,0,0-.43-1.94,41.56,41.56,0,0,0-6.8-5.54c-3.3-2.29-5.9-4.09-8.19-9.23-2.69-6-4.95-14.71-.49-21.76,5.45-8.59,13.85-9.9,19.9-8.27A17.58,17.58,0,0,1,494,141.58c.36,9.58-4.37,15.37-9.38,21.5s-10.14,12.4-10,22.47a20.91,20.91,0,0,0,4.4,13.16c0,.6-.05,1.2-.08,1.8-10.32,5.88-17.23,14.13-20.23,24.29-4.83,16.32.87,36.94,15.23,55.53a106,106,0,0,0-29.57-4.57h0a1.89,1.89,0,0,0-1.89,2.07C442.54,279.28,442.49,281.63,442.42,284.35Zm-12,70.08c1.1-5.51,2.14-10.72,3-15.86.31-1.93.61-4.1.93-6.39,1.44-10.52,3.33-24.32,8.68-32.42a15.56,15.56,0,0,0,2.13,6c4.23,6.21,15.23,8.09,24.07,9.59,2.45.42,4.77.82,6.57,1.25a114.91,114.91,0,0,0,16.29,2.24c5.49.5,10.68,1,15,2.11,11.72,3.09,11.89,6.68,12.53,20,.25,5.3.18,10.78.11,16.08s-.15,10.91.11,16.35a67.39,67.39,0,0,0,1,8.67c.72,4.25,1,6-1.63,8.18a13.43,13.43,0,0,0-3.57-1.85c-4.83-1.69-10.91-1.05-18.47.54.59-9.19-4.86-19.59-10.13-29.67-4-7.6-7.75-14.79-8.92-21.15a1.89,1.89,0,0,0-2.58-1.42c-13.77,5.63-18.28,26.23-21.9,42.78-1.13,5.16-2.2,10.05-3.43,13.87a26.59,26.59,0,0,1-7.35,0l.33-1.21a1.9,1.9,0,0,0-1.08-2.26c-6.79-2.92-12.24-3.76-16.56-2.52C426,376.72,428.24,365.41,430.42,354.43Zm8.56,38.2-2.58-.53a70.91,70.91,0,0,0-8.45-1.43,11.9,11.9,0,0,1,1.82-.13A26.16,26.16,0,0,1,439,392.63Zm-17.27,80.9c-2.79-4-7.43-4.87-11.56-5.66-1-.19-2-.38-2.93-.6-1.54-11.5,1.92-26.18,5-39.19,1-4.2,1.93-8.17,2.65-11.84l.12-.6c1.84-9.31,3.46-17.56,7.28-21.87l.06.06a1.92,1.92,0,0,0,1.38.51,47.47,47.47,0,0,1,11.92,1.48l2.63.54c-1.14,5.39-1.74,10.64-2.32,15.76-1.16,10.25-2.26,19.92-7.41,30.18C423,453.38,420.72,463.19,421.71,473.53Zm85.15,12.88c-8.75.32-18.18-.23-28.13-.81-8-.46-16.18-.94-24.1-.94-9.09,0-17.89.63-25.88,2.6-5.51-15.58-4.57-27.85,3.16-43.25,5.46-10.86,6.65-21.34,7.8-31.46.57-5.07,1.16-10.27,2.29-15.55a29.58,29.58,0,0,0,10.05-.13,1.9,1.9,0,0,0,1.42-1.24,144.23,144.23,0,0,0,3.9-15.36c3.23-14.75,7.21-32.9,17.58-39.06,1.66,6.3,5.26,13.15,8.74,19.8,5.28,10.08,10.73,20.49,9.59,28.81a1.93,1.93,0,0,0,.62,1.68,7.64,7.64,0,0,1,.8.81,1.89,1.89,0,0,0,1.85.63c7.62-1.67,13.56-2.47,17.86-1a11.72,11.72,0,0,1,1.31.56l-1.3.72a66.18,66.18,0,0,1-6.59,3.07c-6.53,2.74-10.85,4.55-11.51,16.65-.37,6.69,1.94,13,4.18,19.18,1.06,2.91,2.16,5.93,2.92,8.87a125.33,125.33,0,0,1,3.44,24,2.8,2.8,0,0,0-.49.77,1.91,1.91,0,0,0-.12.47,7.36,7.36,0,0,0,.88,6.4C507.2,477.92,507.06,482.66,506.86,486.41Zm6.41-13.94a7.08,7.08,0,0,1-2.37-1.28c0-1.24-.07-2.5-.12-3.77,1.3.35,2.67.68,4.1,1,3.58.85,7.46,1.77,10.46,3.31A18.47,18.47,0,0,1,513.27,472.47Zm15.9-4.13a4,4,0,0,1-.49.94c-3.65-2.34-8.48-3.49-12.93-4.54-1.86-.44-3.62-.86-5.18-1.34a128,128,0,0,0-3.47-23.33c-.81-3.13-1.94-6.23-3-9.23-2.2-6-4.28-11.76-4-17.67.53-9.73,3.07-10.79,9.19-13.36a70,70,0,0,0,6.94-3.23c1-.53,1.84-1,2.62-1.52,1.77,2.1,3,5.16,4,9.35,2.5,11.4,1.86,19.94,1,30.75-.12,1.6-.24,3.25-.36,5-.22,3.19,1.29,8.27,2.89,13.65S530,466,529.17,468.34Z"/></svg>