<svg id="Layer_1" data-name="Layer 1" xmlns="http://www.w3.org/2000/svg" viewBox="0 0 1000 612"><defs><style>.cls-1{fill:#73c1a5;}</style></defs><title>Artboard 10</title><path class="cls-1" d="M733.22,455.91a1,1,0,0,1-.6-.27,31.19,31.19,0,0,0-11.35-6.06l-.16-.05A17.17,17.17,0,0,0,711,448a12.24,12.24,0,0,1-4,0C678.6,442,665.71,414.46,658,398l-.49-1c-9.49-20.22-21.76-32.84-30.38-39.88a85.46,85.46,0,0,1,5.11,7.33,1,1,0,0,1,.11.88,1.1,1.1,0,0,1-.59.66c-3.46,1.51-8.91-.61-10.68-1.39-7.89,5.1-21,5.77-23,5.84-12.22,6.46-21.08,8.46-26.35,5.93a6.87,6.87,0,0,1-3.78-4.2,8.9,8.9,0,0,1-.67-8.32,11.66,11.66,0,0,1,1.4-2.42c-8.64,4.25-17.79,5.27-24.77-.11-2.78-2.14-4.11-4.65-4-7.47s1.68-5.3,3.59-7.53c-7.8-.5-13.31,1-15,2.95-1.38,1.65,0,4.56,1.39,7.37,1.12,2.34,2.19,4.54,2,6.48-.44,4-4.66,12.55-14.4,12.24-9.11-.29-10.86-6.61-12.71-13.3l-.24-.85c-1.21-4.35,1.65-8.3,3.75-11.19a11.41,11.41,0,0,0,1.81-3l-.06,0a6.75,6.75,0,0,1-2.12-2.24c-2.4-3.37-6.41-9-27.34-3-7.76,2.24-19.49,2.37-32.31,1.4a22.77,22.77,0,0,0,2,2.93c1.87,2.32,2.33,4.27,1.34,5.79-2.27,3.5-11.63,2.47-18.95.52s-15.09-5.46-15.33-9.63a12.59,12.59,0,0,1,.2-3.42c-5.5-.89-10.79-1.84-15.65-2.76,1.15,2.62,2,4.9,1.43,6.7a7.92,7.92,0,0,1-4.48,4.4c-4,1.78-11.55,2.63-25.16-3.46a1.06,1.06,0,0,1-.59-1.28,61.11,61.11,0,0,0,2.06-12.91,1.07,1.07,0,0,1,.42-.82,1.11,1.11,0,0,1,.9-.19c.26.07,9.15,2.17,21.82,4.64a17.16,17.16,0,0,1-1.44-5.91c-.1-6,6.15-11.13,14.22-11.71,3.65-.26,7.48,1.6,10.51,5.12s4.46,7.79,3.74,11a6.94,6.94,0,0,1-3.53,4.86c-.31.21-.6.4-.86.61,7.84,1.22,16,2.3,23.84,3a22.81,22.81,0,0,1-.11-14.64c1.62-4.89,4.71-8.69,7.69-9.46s4,0,5.06,1.34c.82,1,1.93,2.39,6.33,3.19a8.59,8.59,0,0,0,6.95-1.51c3.3-2.46,4.89-7,5.16-9.5.44-4-.83-11.16-8.36-12.54-7.88-1.44-12.11,2.87-12.15,2.92a1.12,1.12,0,0,1-.71.33,6.3,6.3,0,0,1-5.47-2.29c-5.07-6.11-1.6-23.13-.69-27.15-11.57-5.8-20.84-5.44-24.62-2.6-1.49,1.11-1.11,2.26.43,5.53,1.33,2.8,3,6.29,2.8,11-.37,10.09-12.72,12.43-12.85,12.45a1,1,0,0,1-.46,0C407,296,402.86,293.46,401,290.08c-2.21-4-.78-8.45.61-12.71.84-2.59,1.63-5,1.53-7.19a3,3,0,0,0-1.34-2.6c-3.36-2.19-12,.41-15.08,1.6a1,1,0,0,1-.42.08,75.64,75.64,0,0,1-8.7-.73c.9,4.31,2.28,12.21,1.78,17.91,1.86,2.24,11.26,14.13,10.5,24.15a12,12,0,0,1-4.29,8.53c-8,6.82-16.81,8.1-27.63,3.72.29,1.56.58,3,.85,4.36a.82.82,0,0,1,0,.27c-.53,10.72,14.1,25.42,14.24,25.57a1.06,1.06,0,0,1,.31.61c.63,4.58-.19,8.35-2.42,11.22a14.18,14.18,0,0,1-8.87,5H362c-6.09-.05-11.05-3.06-15-7.31,1.23,3.62,1.45,6.48.63,8.52a4.56,4.56,0,0,1-3,2.81A14.19,14.19,0,0,1,334,376.7h-.1c-15.11-1.73-32.22-22.55-34.29-25.14-13.89-5.46-23.92-22.12-25.52-24.9-8.78-3-17.79-14.47-19.89-17.27-6.9,1.78-11.49-.54-13-1.48-36.15,13.13-82.93,1-83.4.83a1.07,1.07,0,0,1-.78-1.23,1.06,1.06,0,0,1,1.15-.87c57.17,5.42,79-3.2,87.27-11.38a14.2,14.2,0,0,0,4.33-7.54c-17,3.7-55.9-11.47-57.6-12.13a1.07,1.07,0,0,1,.76-2c36.35,13.41,62.82,5.19,80.34-.26,8.59-2.67,15.37-4.77,20.5-3.53,14.19,3.44,31.38,16,30.95,19.86-.19,1.74,4.42,12,20.37,23.39a79.63,79.63,0,0,0,10.05,6.2c-1.09-6.56-2.14-14.87-1-17.35a1.47,1.47,0,0,1,1.33-1c1.17,0,1.8,1.23,3.19,4,2.14,4.22,5.71,11.28,11.43,12.85,2.92.81,6.2.07,9.73-2.17l.18-.1a5.56,5.56,0,0,0,3-4c.73-3.19-.2-8.86-7.56-18.5-.35,3.54-1.5,6.05-3.45,7.48-4.53,3.36-11.37-.47-11.66-.63a1.07,1.07,0,0,1-.54-.92,1.09,1.09,0,0,1,.52-.93c5.39-3.19,9.66-12.37,9.7-12.47a1.11,1.11,0,0,1,.81-.61,1.08,1.08,0,0,1,1,.35q.74.81,1.44,1.62a65,65,0,0,0-1.18-7c-1.18-1.55-8.58-11.47-10.52-17.4a18.68,18.68,0,0,1-5.18-6,19,19,0,0,1-1-2.16c-5.08-4.28-12.66-9.14-19.67-13.64l-2.32-1.5c-5.93-3.82-15.14-12.29-21.21-18.38-13.7-13.74-12.64-15.5-12.18-16.25.89-1.48,3.12-.37,5.14.78,10.49,6,11.54,8.61,11.42,10.07a2.06,2.06,0,0,1-.2.74c2.11,2.49,9.56,10.65,15.4,9.2,2.89-.72,5.08-3.81,6.51-9.2.34-1.81.67-3.14.79-3.6a1.06,1.06,0,0,1,1.26-.78,1.07,1.07,0,0,1,.83,1.23c-.22,1.23-.47,2.37-.75,3.45-1.07,5.85-1.83,14.94,1.92,17.27,2.22,1.38,7.22,1,18.44-8.67a1.08,1.08,0,0,1,1.62,1.38c-.1.16-9.17,15.09-5.16,26.67,3.32,2.87,5.59,5.55,6.13,7.89,0,.06,0,.13.05.19a30,30,0,0,0,11.44,4.62,1.07,1.07,0,0,1,.47-1.05,15,15,0,0,1,9.12-2.2c.17-4.83,2.11-10.44,4.16-16.35,2.12-6.13,4.52-13.08,5.29-20.16,1.36-12.49-35-38.15-51.79-47.93-1.5-.87-3.09-1.83-4.76-2.83-10.49-6.26-23.54-14.06-36.35-16.59-10.08-2-25.39,1.87-41.61,6-7.38,1.86-15,3.79-22.2,5.14-22.41,4.21-64,5.08-64.46,5.09a1.08,1.08,0,0,1-.05-2.15c.42,0,41.88-.87,64.11-5.05,7.12-1.33,14.72-3.25,22.08-5.11,16.45-4.16,32-8.08,42.55-6,13.17,2.6,26.4,10.5,37,16.85,1.66,1,3.25,1.95,4.74,2.82.55.31,54.73,32.7,52.84,50-.79,7.31-3.24,14.38-5.4,20.62s-4.18,12.12-4,16.82a1.12,1.12,0,0,1-.38.85,1.07,1.07,0,0,1-.89.23,13.72,13.72,0,0,0-8.17,1.35v.08a71,71,0,0,0,9,.82c1.94-.74,12.16-4.37,16.84-1.33a5.2,5.2,0,0,1,2.31,4.3c.11,2.55-.78,5.29-1.64,7.95-1.3,4-2.53,7.8-.76,11,1.53,2.8,5.19,4.93,11.2,6.53,1.59-.34,10.58-2.59,10.87-10.38.15-4.15-1.37-7.38-2.6-10-1.43-3-2.79-5.91.22-8.17,4.53-3.4,14.84-3.86,27.64,2.79a1.07,1.07,0,0,1,.54,1.21c-1.37,5.58-4,21.15.07,26.1a4.1,4.1,0,0,0,3.32,1.52c1.26-1.11,6-4.64,13.75-3.22,9.07,1.66,10.62,10.13,10.1,14.88-.26,2.45-1.86,7.89-6,11a10.68,10.68,0,0,1-8.61,1.9c-5.19-1-6.65-2.75-7.62-4-.71-.88-.9-1.12-2.85-.61s-4.65,3.42-6.19,8.06a20.46,20.46,0,0,0,.46,14.17C460.3,342,472.3,342,480,339.72c22.39-6.46,27,0,29.68,3.8a5.64,5.64,0,0,0,1.38,1.59,2.11,2.11,0,0,1,1.13,1.4c.32,1.36-.72,2.79-2.16,4.78-1.94,2.67-4.35,6-3.41,9.36l.23.85c1.78,6.42,3.17,11.49,10.72,11.73,7.79.24,11.79-6.61,12.19-10.34.15-1.32-.83-3.35-1.77-5.3-1.58-3.27-3.37-7-1.11-9.68,2.4-2.87,9.35-4.47,18.53-3.58a39.4,39.4,0,0,1,4.34-3.56c-17.77-6.22-70.1-6.45-70.65-6.45a1,1,0,0,1-.88-.47c-2.87-4.2-1.83-10.34.09-14.67,1.52-3.42,4.31-7.24,7.59-7.69s5.12,1.05,6.92,2.5a11,11,0,0,0,6.16,2.92c6,.65,11.66-5.64,12.94-11.7,1.22-5.82.26-10.28-8.45-13.16-3.49-1.16-4.08-.54-4.9.33-1.66,1.75-3.5,2.91-10.61.66a8.89,8.89,0,0,1-5.81-5.2c-3.57-8.5,3.84-23.28,4.16-23.9a1.08,1.08,0,0,1,1.27-.54c16.94,5.21,29,1,29.71-1.28.37-1.16-.55-3.21-1.53-5.37-1.23-2.75-2.63-5.86-2.3-8.91.63-5.8,6.19-11.13,15.59-10.11a12.83,12.83,0,0,1,9.37,5.07,13.51,13.51,0,0,1,2,10.76c-.58,2.77-2.38,4.67-4,6.34-1.29,1.36-2.4,2.53-2.34,3.68.06.91.85,2,2.38,3.3a11.07,11.07,0,0,0,3.62,1.9q7.14-7.8,24-15.74c1.93-1.48,25.72-19.49,39.35-22,9.51-1.72,24,.59,35.6,2.45,5.72.91,10.66,1.7,14.33,1.94,5.75.38,9,.73,12.21,1.08s6.42.7,12.12,1.07c2.51.16,4.57.25,6.39.33,6.46.29,9.41.42,15.19,3.07a1.07,1.07,0,0,1-.38,2.05c-.24,0-23.89,1.65-39,24.28-7.89,11.83-9.5,21.19-11.06,30.24-1.5,8.74-2.92,17-9.69,26.69-10.84,15.52-23.23,23.29-36.83,23.11-2.07.5-28.86,7.13-33.18,17.32a6.8,6.8,0,0,0,.63,6.51,1.14,1.14,0,0,1,.13.35,4.62,4.62,0,0,0,2.72,2.92c3.21,1.5,10.08,1.66,24.56-6a1.15,1.15,0,0,1,.48-.13c.15,0,14.86-.42,22.64-5.8a1.05,1.05,0,0,1,1.07-.09c1.49.72,5.43,2.23,8.19,1.93-2.1-3.21-8-11.79-13.1-14.49a1.06,1.06,0,0,1-.45-1.43,1.07,1.07,0,0,1,1.43-.47c.25.12,25.33,12.76,42,48.14l.48,1c7.53,16.06,20.14,42.94,47.44,48.8a10.33,10.33,0,0,0,3.37,0,19.35,19.35,0,0,1,11.13,1.63,29.62,29.62,0,0,1,3.18,1.09c-12.72-12-37.81-36.33-47-50.32-8-12.21-16.15-37.56-19.86-61.65-2.72-17.68-5.41-50.39,7.17-70.91,8.37-13.66,21.94-19.57,40.31-17.56a1.09,1.09,0,0,1,.87.62c.09.2,8.94,20.06,13.72,30.58,2,4.39,3.9,10.21,5.92,16.37,4.68,14.25,10.5,32,20.55,41.35a1.07,1.07,0,1,1-1.46,1.57c-10.46-9.75-16.37-27.77-21.12-42.25-2-6.11-3.9-11.87-5.85-16.16-4.32-9.52-12-26.69-13.47-30-17.17-1.7-29.83,3.88-37.64,16.62-21.11,34.44-1.12,109.21,12.65,130.26,12.07,18.45,53.74,56.55,54.16,56.93a1.09,1.09,0,0,1,.07,1.52A1.06,1.06,0,0,1,733.22,455.91ZM254.74,307.08a1.07,1.07,0,0,1,.75.44c.1.14,10.39,14.29,19.66,17.22a1,1,0,0,1,.61.5c.11.19,10.63,19,24.89,24.41a1.11,1.11,0,0,1,.46.34c.18.23,18.15,22.87,33,24.57h.08a12,12,0,0,0,9.2-2.55,1.07,1.07,0,0,1,.54-.22,2.39,2.39,0,0,0,1.64-1.62c1-2.68.79-12.05-22.93-41.07-.89-.85-13.1-12.62-19.74-23.07-5.52-8.67-12.93-16.75-16.09-20.21-.79-.85-1.31-1.42-1.55-1.73-.91-1.13,0-3,.28-3.62.8-1.53,2.39-3.12,4.42-3,2.59.2,4.88,3,6.82,8.5.77,1.09,7.24,10,14.72,13.23a1.08,1.08,0,0,1,.57.58c.1.24,10.09,24.36,22.79,32.87a1.11,1.11,0,0,1,.45.67c.07.34,7.61,34.09,26.56,34.34a12.16,12.16,0,0,0,7.37-4.15c1.8-2.33,2.48-5.43,2-9.24-2.08-2.13-15-15.85-14.62-26.8-.16-.8-.59-2.95-1.08-5.7a77.11,77.11,0,0,1-11.74-7c-15.48-11-21.54-22.07-21.25-25.33-.39-2.12-14.44-14-29.32-17.59-4.55-1.1-11.09.93-19.36,3.5-12.91,4-30.59,9.51-53.45,7l-.49-.06c11.45,3,23.73,5.11,30.66,2.95a1.09,1.09,0,0,1,.91.14,1,1,0,0,1,.47.8c0,.2.38,5.17-5.06,10.56-7.57,7.5-25.9,15.38-69.92,13.36,16.93,2.28,42.45,3.54,63.95-4.43a1.06,1.06,0,0,1,1,.16c.19.14,4.66,3.5,12.29,1.26A1,1,0,0,1,254.74,307.08Zm32.31-24.24c.24.29.75.85,1.38,1.54,3.2,3.49,10.7,11.67,16.32,20.5,6.72,10.57,19.33,22.6,19.46,22.72l.09.1q6.75,8.25,11.62,15.17a79.74,79.74,0,0,1-2.57-8.65c-12.3-8.53-21.66-29.89-23.06-33.2-8.32-3.8-15-13.51-15.32-13.92a1.19,1.19,0,0,1-.13-.25c-1.74-5-3.8-7.64-5.5-7.16C288,280.07,287,282.2,287.05,282.84Zm88.36,59.82c13,5.65,19.71,4.38,22.57,3.09a5.83,5.83,0,0,0,3.32-3.08c.39-1.26-.72-3.77-1.8-6.2l-.15-.35c-10.72-2.08-19-4-22.11-4.69A62.9,62.9,0,0,1,375.41,342.66Zm44.26-3a10.57,10.57,0,0,0-.17,3c.14,2.37,5.91,5.6,13.74,7.68,8.87,2.36,15.53,2,16.6.38.56-.86-.52-2.42-1.21-3.28a23.89,23.89,0,0,1-2.87-4.48C437.19,342.24,428.22,341.05,419.67,339.71Zm126.53,6.86c-2.12,2.17-4,4.79-4.13,7.41-.11,2.1.9,3.94,3.12,5.65,10.45,8.06,26.68-.1,37.33-11.1a1,1,0,0,1,.54-.3c.1,0,9.8-2.14,17.47-6.63-2.45-2.27-9.2-7.94-16.34-8.72a64.91,64.91,0,0,0-6.72-.07c-4,.06-9,.14-14.36-.25-2.38,8.79-4.54,14.89-4.79,15.59a1.08,1.08,0,0,1-1.32.67A63.6,63.6,0,0,0,546.2,346.57ZM400.84,334.18c5.38,1,11.35,2.1,17.56,3.1a7.2,7.2,0,0,1,2.24-2,4.92,4.92,0,0,0,2.61-3.54c.57-2.55-.75-6.22-3.27-9.15s-5.81-4.59-8.74-4.38c-6.82.49-12.3,4.77-12.23,9.54A18.58,18.58,0,0,0,400.84,334.18Zm183,16.08c-.6.61-1.22,1.22-1.85,1.81A117.92,117.92,0,0,1,602,345.26a1.18,1.18,0,0,1,.26,0c12.9.22,24.73-7.25,35.17-22.2,6.5-9.3,7.88-17.33,9.34-25.83,1.59-9.26,3.24-18.85,11.38-31.06a57.66,57.66,0,0,1,36.62-24.64c-3.32-1.09-6-1.21-10.76-1.42-1.83-.08-3.91-.18-6.44-.34-5.75-.38-9-.73-12.21-1.08s-6.42-.7-12.12-1.07c-3.77-.24-8.75-1-14.53-2-11.46-1.84-25.73-4.12-34.88-2.46-13.4,2.44-38.27,21.44-38.52,21.63a.82.82,0,0,1-.2.12c-11.57,5.45-18.52,10.34-22.61,14.49,9.16,2,22.86-.17,23-.2a1.08,1.08,0,0,1,1.18.69,50.5,50.5,0,0,1,2.74,13.34,28.45,28.45,0,0,0,5.16-4.71,1.06,1.06,0,0,1,.94-.4,1.12,1.12,0,0,1,.85.57,7.4,7.4,0,0,1,.64,1.92,2.18,2.18,0,0,0,.22.74c1.09.65,9.05-1.52,12.88-2.57,9.59-2.62,12.21-8.91,12.76-13.61,0-.47,0-1,0-1.47a42.82,42.82,0,0,0-.23-4.39,1.07,1.07,0,0,1,2.11-.36,20,20,0,0,1,.28,5.78c.12,4.43,1,6.11,12.8,8.47,5.15,1,9.17.44,11.95-1.74a9.75,9.75,0,0,0,1.34-1.3,25.84,25.84,0,0,1,2.77-7.1,1.07,1.07,0,0,1,2,.56,14.29,14.29,0,0,1-2.79,7.49c-1.55,7.95,2.26,14.11,5,18.51,2.18,3.52,4.06,6.56,1.18,8.39-5.42,3.44-13,3.34-25,2-7-.82-12.62-3-18.55-5.32-3.36-1.32-6.85-2.68-10.73-3.83a40,40,0,0,0-15.31-1.93c.15,14.18-3,29.87-6.08,41.55,5.11.34,9.93.26,13.77.2a69.42,69.42,0,0,1,7,.09c9.7,1.05,18.27,9.93,18.63,10.3a1.09,1.09,0,0,1,.29.87,1.08,1.08,0,0,1-.49.78C595.38,347.45,585.74,349.82,583.83,350.26Zm-35.59-5.58a67.09,67.09,0,0,1,8.39,1.8c.69-2,2.39-7.21,4.25-14.1-15.1-1.44-32-6.93-34.46-26.67a1.47,1.47,0,0,1,0-.21,10.39,10.39,0,0,1,4.44-7.26,13.52,13.52,0,0,1,5.53-2.18,21.84,21.84,0,0,1,10.94-5.47l.33-.07a34.81,34.81,0,0,1-9.53-3.34.87.87,0,0,1-.23-.16,10.16,10.16,0,0,1-2.79-8.79,16.67,16.67,0,0,1,3.6-7.72,12.08,12.08,0,0,1-3.54-2c-2-1.71-3-3.24-3.14-4.82-.12-2.08,1.36-3.63,2.92-5.27s3-3.14,3.43-5.31a11.39,11.39,0,0,0-1.67-9.06,10.82,10.82,0,0,0-7.88-4.2c-8-.87-12.7,3.47-13.22,8.21-.27,2.48,1,5.3,2.13,7.8,1.19,2.66,2.23,5,1.62,6.9-1.23,3.89-14.38,7.94-31.51,3-1.46,3.14-6.46,14.74-3.71,21.29a6.78,6.78,0,0,0,4.49,4c6.4,2,7.42.94,8.41-.1,1.32-1.4,2.69-2.36,7.12-.89,8.63,2.85,11.59,7.53,9.87,15.64-1.5,7.11-8,14.18-15.26,13.39a13.15,13.15,0,0,1-7.27-3.38c-1.71-1.37-2.95-2.36-5.29-2-1.95.27-4.33,2.85-5.92,6.43s-2.56,8.64-.57,12.13c6.43,0,57.47.56,72.78,7.36a1.06,1.06,0,0,1,.12,1.89A41.23,41.23,0,0,0,548.24,344.68ZM357.52,320.36c10.63,4.72,19,3.7,26.68-2.87a10,10,0,0,0,3.54-7.06c.76-10-10.17-22.82-10.28-22.94a1.07,1.07,0,0,1-.26-.82c.63-5.74-1-14.49-1.87-18.53a36.85,36.85,0,0,1-10.66-3.57c2.94,6,9.14,14.15,9.21,14.25a1,1,0,0,1,.2.42,56.05,56.05,0,0,1,1.46,10.43c7.63,9.41,10.83,16.93,9.53,22.4a7.76,7.76,0,0,1-4.17,5.35c-4,2.55-7.86,3.35-11.37,2.39-6.63-1.82-10.47-9.41-12.77-13.95-.31-.61-.64-1.26-.93-1.79C355.54,307.2,356.45,314.08,357.52,320.36Zm171.05-14.8c1.45,11.23,7.9,18.51,19.7,22.25a63,63,0,0,0,13.17,2.48c3-11.57,6.22-27.22,6.13-41.19a188.37,188.37,0,0,0-19.78,3.59,22.36,22.36,0,0,0-7.66,3.07,40.28,40.28,0,0,1,11,1.79,1.08,1.08,0,0,1,.71,1.41c-.05.12-4.73,13-.76,18.48,1.28,1.75,1.52,3.18.73,4.24-2.47,3.31-14.17-.79-14.66-1-3.5-1.24-6.13-7.46-5.74-13.57A17.35,17.35,0,0,1,534,299a10.09,10.09,0,0,0-1.95,1.05A8.34,8.34,0,0,0,528.57,305.56Zm8.79-7.47a14.76,14.76,0,0,0-3.83,9.18c-.37,5.9,2.3,10.71,4.31,11.42,5.75,2,11.53,2.64,12.23,1.7,0-.07.08-.56-.74-1.68-3.94-5.41-1-15.95.1-19.4A31.7,31.7,0,0,0,537.36,298.09ZM363,298.74c2,.8,5.42,1.73,7.72,0,1.4-1,2.72-3.33,2.7-8.3-.68-.83-1.41-1.69-2.18-2.58C369.91,290.43,366.88,295.66,363,298.74Zm213.94-11.83a48.75,48.75,0,0,1,8.73,1.87c4,1.18,7.5,2.56,10.91,3.89,5.78,2.27,11.25,4.41,18,5.19,11.51,1.33,18.68,1.46,23.56-1.64.94-.6.39-1.82-1.85-5.45-2.46-4-6.08-9.83-5.62-17.27-3.25,2.31-7.7,2.92-13.24,1.82-8.42-1.68-11.94-3.22-13.44-5.66-1.59,4.42-5.25,9-13.25,11.21-10.77,2.94-13.18,3.17-14.56,2.33a2.71,2.71,0,0,1-1.16-1.9,34.5,34.5,0,0,1-5.38,4.43c0,.35,0,.7.05,1.06A41,41,0,0,1,576.94,286.91Zm-37.69-1.57c12.17,6.19,22,3.09,28.17-.7A50.79,50.79,0,0,0,565,271.47c-3.42.48-15.68,1.95-24.11-.26a15.25,15.25,0,0,0-3.68,7.28A8,8,0,0,0,539.25,285.34Zm-237-79c3,5.09,22,24.51,32.24,31.09l2.32,1.49c6.25,4,12.6,8.09,17.53,11.92-1.4-7.67,1.43-15.84,3.71-20.81-7.79,6-13.34,7.78-16.92,5.55-3.28-2-4-7.08-3.81-11.93a8.74,8.74,0,0,1-5.11,3.82,7.93,7.93,0,0,1-2.87.17c-7.4-.8-14.95-10.37-15.31-10.83a1.07,1.07,0,0,1,.33-1.6c-.08-.39-.93-2.6-10.34-8C303.26,206.82,302.69,206.54,302.28,206.36Z"/></svg>